<mxfile host="app.diagrams.net" modified="2023-11-15T22:38:27.955Z" agent="Mozilla/5.0 (Windows NT 10.0; Win64; x64; rv:109.0) Gecko/20100101 Firefox/119.0" etag="OfV2N10LqAkMdTgxa-s8" version="22.1.2" type="github">
  <diagram id="R2lEEEUBdFMjLlhIrx00" name="Page-1">
    <mxGraphModel dx="1400" dy="707" grid="1" gridSize="10" guides="1" tooltips="1" connect="1" arrows="1" fold="1" page="1" pageScale="1" pageWidth="850" pageHeight="1100" math="0" shadow="0" extFonts="Permanent Marker^https://fonts.googleapis.com/css?family=Permanent+Marker">
      <root>
        <mxCell id="0" />
        <mxCell id="1" parent="0" />
        <mxCell id="fr7ok5PWlqHTc7R7XnK3-13" style="edgeStyle=orthogonalEdgeStyle;rounded=0;orthogonalLoop=1;jettySize=auto;html=1;exitX=0;exitY=0.5;exitDx=0;exitDy=0;endArrow=none;endFill=0;" edge="1" parent="1" source="fr7ok5PWlqHTc7R7XnK3-1" target="fr7ok5PWlqHTc7R7XnK3-12">
          <mxGeometry relative="1" as="geometry" />
        </mxCell>
        <mxCell id="fr7ok5PWlqHTc7R7XnK3-14" style="edgeStyle=orthogonalEdgeStyle;rounded=0;orthogonalLoop=1;jettySize=auto;html=1;exitX=0.5;exitY=1;exitDx=0;exitDy=0;shape=link;" edge="1" parent="1" source="fr7ok5PWlqHTc7R7XnK3-1" target="fr7ok5PWlqHTc7R7XnK3-11">
          <mxGeometry relative="1" as="geometry" />
        </mxCell>
        <mxCell id="fr7ok5PWlqHTc7R7XnK3-36" style="edgeStyle=orthogonalEdgeStyle;rounded=0;orthogonalLoop=1;jettySize=auto;html=1;exitX=1;exitY=0.5;exitDx=0;exitDy=0;entryX=0;entryY=0.5;entryDx=0;entryDy=0;endArrow=none;endFill=0;" edge="1" parent="1" source="fr7ok5PWlqHTc7R7XnK3-1" target="fr7ok5PWlqHTc7R7XnK3-35">
          <mxGeometry relative="1" as="geometry" />
        </mxCell>
        <mxCell id="fr7ok5PWlqHTc7R7XnK3-38" value="1" style="edgeLabel;html=1;align=center;verticalAlign=middle;resizable=0;points=[];" vertex="1" connectable="0" parent="fr7ok5PWlqHTc7R7XnK3-36">
          <mxGeometry x="-0.5783" relative="1" as="geometry">
            <mxPoint as="offset" />
          </mxGeometry>
        </mxCell>
        <mxCell id="fr7ok5PWlqHTc7R7XnK3-1" value="Account" style="rounded=1;whiteSpace=wrap;html=1;fillColor=#d5e8d4;strokeColor=#82b366;" vertex="1" parent="1">
          <mxGeometry x="180" y="150" width="120" height="60" as="geometry" />
        </mxCell>
        <mxCell id="fr7ok5PWlqHTc7R7XnK3-49" style="edgeStyle=orthogonalEdgeStyle;rounded=0;orthogonalLoop=1;jettySize=auto;html=1;exitX=0.5;exitY=1;exitDx=0;exitDy=0;endArrow=none;endFill=0;" edge="1" parent="1" source="fr7ok5PWlqHTc7R7XnK3-2" target="fr7ok5PWlqHTc7R7XnK3-48">
          <mxGeometry relative="1" as="geometry" />
        </mxCell>
        <mxCell id="fr7ok5PWlqHTc7R7XnK3-51" value="[1..40]" style="edgeLabel;html=1;align=center;verticalAlign=middle;resizable=0;points=[];" vertex="1" connectable="0" parent="fr7ok5PWlqHTc7R7XnK3-49">
          <mxGeometry x="-0.4752" y="3" relative="1" as="geometry">
            <mxPoint as="offset" />
          </mxGeometry>
        </mxCell>
        <mxCell id="fr7ok5PWlqHTc7R7XnK3-88" style="edgeStyle=orthogonalEdgeStyle;rounded=0;orthogonalLoop=1;jettySize=auto;html=1;exitX=1;exitY=0.25;exitDx=0;exitDy=0;endArrow=none;endFill=0;" edge="1" parent="1" source="fr7ok5PWlqHTc7R7XnK3-2" target="fr7ok5PWlqHTc7R7XnK3-87">
          <mxGeometry relative="1" as="geometry">
            <Array as="points">
              <mxPoint x="400" y="430" />
            </Array>
          </mxGeometry>
        </mxCell>
        <mxCell id="fr7ok5PWlqHTc7R7XnK3-90" value="1" style="edgeLabel;html=1;align=center;verticalAlign=middle;resizable=0;points=[];" vertex="1" connectable="0" parent="fr7ok5PWlqHTc7R7XnK3-88">
          <mxGeometry x="-0.6648" y="2" relative="1" as="geometry">
            <mxPoint as="offset" />
          </mxGeometry>
        </mxCell>
        <mxCell id="fr7ok5PWlqHTc7R7XnK3-110" style="edgeStyle=orthogonalEdgeStyle;rounded=0;orthogonalLoop=1;jettySize=auto;html=1;exitX=1;exitY=0.75;exitDx=0;exitDy=0;endArrow=none;endFill=0;" edge="1" parent="1" source="fr7ok5PWlqHTc7R7XnK3-2" target="fr7ok5PWlqHTc7R7XnK3-109">
          <mxGeometry relative="1" as="geometry">
            <Array as="points">
              <mxPoint x="500" y="465" />
              <mxPoint x="500" y="610" />
              <mxPoint x="715" y="610" />
            </Array>
          </mxGeometry>
        </mxCell>
        <mxCell id="fr7ok5PWlqHTc7R7XnK3-112" value="1" style="edgeLabel;html=1;align=center;verticalAlign=middle;resizable=0;points=[];" vertex="1" connectable="0" parent="fr7ok5PWlqHTc7R7XnK3-110">
          <mxGeometry x="-0.8947" y="1" relative="1" as="geometry">
            <mxPoint x="-3" as="offset" />
          </mxGeometry>
        </mxCell>
        <mxCell id="fr7ok5PWlqHTc7R7XnK3-2" value="Client User" style="rounded=1;whiteSpace=wrap;html=1;fillColor=#d5e8d4;strokeColor=#82b366;" vertex="1" parent="1">
          <mxGeometry x="280" y="420" width="120" height="60" as="geometry" />
        </mxCell>
        <mxCell id="fr7ok5PWlqHTc7R7XnK3-3" value="Administrator" style="rounded=1;whiteSpace=wrap;html=1;fillColor=#d5e8d4;strokeColor=#82b366;" vertex="1" parent="1">
          <mxGeometry x="80" y="420" width="120" height="60" as="geometry" />
        </mxCell>
        <mxCell id="fr7ok5PWlqHTc7R7XnK3-15" style="edgeStyle=orthogonalEdgeStyle;rounded=0;orthogonalLoop=1;jettySize=auto;html=1;exitX=0.5;exitY=1;exitDx=0;exitDy=0;entryX=0.5;entryY=0;entryDx=0;entryDy=0;endArrow=none;endFill=0;" edge="1" parent="1" source="fr7ok5PWlqHTc7R7XnK3-11" target="fr7ok5PWlqHTc7R7XnK3-3">
          <mxGeometry relative="1" as="geometry" />
        </mxCell>
        <mxCell id="fr7ok5PWlqHTc7R7XnK3-18" value="U" style="edgeLabel;html=1;align=center;verticalAlign=middle;resizable=0;points=[];" vertex="1" connectable="0" parent="fr7ok5PWlqHTc7R7XnK3-15">
          <mxGeometry x="0.7238" y="1" relative="1" as="geometry">
            <mxPoint as="offset" />
          </mxGeometry>
        </mxCell>
        <mxCell id="fr7ok5PWlqHTc7R7XnK3-16" style="edgeStyle=orthogonalEdgeStyle;rounded=0;orthogonalLoop=1;jettySize=auto;html=1;exitX=0.5;exitY=1;exitDx=0;exitDy=0;endArrow=none;endFill=0;" edge="1" parent="1" source="fr7ok5PWlqHTc7R7XnK3-11" target="fr7ok5PWlqHTc7R7XnK3-2">
          <mxGeometry relative="1" as="geometry" />
        </mxCell>
        <mxCell id="fr7ok5PWlqHTc7R7XnK3-19" value="U" style="edgeLabel;html=1;align=center;verticalAlign=middle;resizable=0;points=[];" vertex="1" connectable="0" parent="fr7ok5PWlqHTc7R7XnK3-16">
          <mxGeometry x="0.7132" y="2" relative="1" as="geometry">
            <mxPoint as="offset" />
          </mxGeometry>
        </mxCell>
        <mxCell id="fr7ok5PWlqHTc7R7XnK3-11" value="d" style="ellipse;whiteSpace=wrap;html=1;aspect=fixed;fillColor=#008a00;strokeColor=#005700;fontColor=#ffffff;" vertex="1" parent="1">
          <mxGeometry x="220" y="270" width="40" height="40" as="geometry" />
        </mxCell>
        <mxCell id="fr7ok5PWlqHTc7R7XnK3-12" value="&lt;u&gt;account id&lt;/u&gt;" style="ellipse;whiteSpace=wrap;html=1;fillColor=#60a917;strokeColor=#2D7600;fontColor=#ffffff;" vertex="1" parent="1">
          <mxGeometry x="30" y="150" width="110" height="60" as="geometry" />
        </mxCell>
        <mxCell id="fr7ok5PWlqHTc7R7XnK3-23" style="edgeStyle=orthogonalEdgeStyle;rounded=0;orthogonalLoop=1;jettySize=auto;html=1;endArrow=none;endFill=0;" edge="1" parent="1" source="fr7ok5PWlqHTc7R7XnK3-20" target="fr7ok5PWlqHTc7R7XnK3-1">
          <mxGeometry relative="1" as="geometry">
            <Array as="points">
              <mxPoint x="155" y="125" />
              <mxPoint x="200" y="125" />
            </Array>
          </mxGeometry>
        </mxCell>
        <mxCell id="fr7ok5PWlqHTc7R7XnK3-20" value="username" style="ellipse;whiteSpace=wrap;html=1;fillColor=#60a917;strokeColor=#2D7600;fontColor=#ffffff;" vertex="1" parent="1">
          <mxGeometry x="100" y="40" width="110" height="60" as="geometry" />
        </mxCell>
        <mxCell id="fr7ok5PWlqHTc7R7XnK3-24" style="edgeStyle=orthogonalEdgeStyle;rounded=0;orthogonalLoop=1;jettySize=auto;html=1;exitX=0.5;exitY=1;exitDx=0;exitDy=0;endArrow=none;endFill=0;" edge="1" parent="1" source="fr7ok5PWlqHTc7R7XnK3-21" target="fr7ok5PWlqHTc7R7XnK3-1">
          <mxGeometry relative="1" as="geometry">
            <Array as="points">
              <mxPoint x="270" y="100" />
            </Array>
          </mxGeometry>
        </mxCell>
        <mxCell id="fr7ok5PWlqHTc7R7XnK3-21" value="email" style="ellipse;whiteSpace=wrap;html=1;fillColor=#60a917;strokeColor=#2D7600;fontColor=#ffffff;" vertex="1" parent="1">
          <mxGeometry x="220" y="40" width="110" height="60" as="geometry" />
        </mxCell>
        <mxCell id="fr7ok5PWlqHTc7R7XnK3-25" style="edgeStyle=orthogonalEdgeStyle;rounded=0;orthogonalLoop=1;jettySize=auto;html=1;exitX=0.5;exitY=1;exitDx=0;exitDy=0;entryX=1;entryY=0.25;entryDx=0;entryDy=0;endArrow=none;endFill=0;" edge="1" parent="1" source="fr7ok5PWlqHTc7R7XnK3-22" target="fr7ok5PWlqHTc7R7XnK3-1">
          <mxGeometry relative="1" as="geometry">
            <Array as="points">
              <mxPoint x="340" y="100" />
              <mxPoint x="340" y="130" />
              <mxPoint x="300" y="130" />
            </Array>
          </mxGeometry>
        </mxCell>
        <mxCell id="fr7ok5PWlqHTc7R7XnK3-22" value="password" style="ellipse;whiteSpace=wrap;html=1;fillColor=#60a917;strokeColor=#2D7600;fontColor=#ffffff;" vertex="1" parent="1">
          <mxGeometry x="350" y="60" width="110" height="60" as="geometry" />
        </mxCell>
        <mxCell id="fr7ok5PWlqHTc7R7XnK3-27" style="edgeStyle=orthogonalEdgeStyle;rounded=0;orthogonalLoop=1;jettySize=auto;html=1;exitX=0.5;exitY=0;exitDx=0;exitDy=0;endArrow=none;endFill=0;" edge="1" parent="1" source="fr7ok5PWlqHTc7R7XnK3-26" target="fr7ok5PWlqHTc7R7XnK3-3">
          <mxGeometry relative="1" as="geometry" />
        </mxCell>
        <mxCell id="fr7ok5PWlqHTc7R7XnK3-26" value="&lt;u&gt;admin id&lt;/u&gt;" style="ellipse;whiteSpace=wrap;html=1;fillColor=#60a917;fontColor=#ffffff;strokeColor=#2D7600;" vertex="1" parent="1">
          <mxGeometry x="85" y="540" width="110" height="60" as="geometry" />
        </mxCell>
        <mxCell id="fr7ok5PWlqHTc7R7XnK3-29" style="edgeStyle=orthogonalEdgeStyle;rounded=0;orthogonalLoop=1;jettySize=auto;html=1;endArrow=none;endFill=0;" edge="1" parent="1" source="fr7ok5PWlqHTc7R7XnK3-28" target="fr7ok5PWlqHTc7R7XnK3-2">
          <mxGeometry relative="1" as="geometry">
            <Array as="points">
              <mxPoint x="265" y="510" />
              <mxPoint x="300" y="510" />
            </Array>
          </mxGeometry>
        </mxCell>
        <mxCell id="fr7ok5PWlqHTc7R7XnK3-28" value="&lt;u&gt;user id&lt;/u&gt;" style="ellipse;whiteSpace=wrap;html=1;fillColor=#60a917;fontColor=#ffffff;strokeColor=#2D7600;" vertex="1" parent="1">
          <mxGeometry x="210" y="540" width="110" height="60" as="geometry" />
        </mxCell>
        <mxCell id="fr7ok5PWlqHTc7R7XnK3-33" style="edgeStyle=orthogonalEdgeStyle;rounded=0;orthogonalLoop=1;jettySize=auto;html=1;endArrow=none;endFill=0;" edge="1" parent="1" source="fr7ok5PWlqHTc7R7XnK3-30" target="fr7ok5PWlqHTc7R7XnK3-2">
          <mxGeometry relative="1" as="geometry">
            <Array as="points">
              <mxPoint x="435" y="375" />
              <mxPoint x="380" y="375" />
            </Array>
          </mxGeometry>
        </mxCell>
        <mxCell id="fr7ok5PWlqHTc7R7XnK3-30" value="age" style="ellipse;whiteSpace=wrap;html=1;fillColor=#60a917;fontColor=#ffffff;strokeColor=#2D7600;" vertex="1" parent="1">
          <mxGeometry x="390" y="320" width="110" height="60" as="geometry" />
        </mxCell>
        <mxCell id="fr7ok5PWlqHTc7R7XnK3-32" style="edgeStyle=orthogonalEdgeStyle;rounded=0;orthogonalLoop=1;jettySize=auto;html=1;endArrow=none;endFill=0;" edge="1" parent="1" source="fr7ok5PWlqHTc7R7XnK3-31" target="fr7ok5PWlqHTc7R7XnK3-2">
          <mxGeometry relative="1" as="geometry">
            <Array as="points">
              <mxPoint x="415" y="510" />
              <mxPoint x="390" y="510" />
            </Array>
          </mxGeometry>
        </mxCell>
        <mxCell id="fr7ok5PWlqHTc7R7XnK3-31" value="description" style="ellipse;whiteSpace=wrap;html=1;fillColor=#60a917;fontColor=#ffffff;strokeColor=#2D7600;" vertex="1" parent="1">
          <mxGeometry x="360" y="540" width="110" height="60" as="geometry" />
        </mxCell>
        <mxCell id="fr7ok5PWlqHTc7R7XnK3-43" style="edgeStyle=orthogonalEdgeStyle;rounded=0;orthogonalLoop=1;jettySize=auto;html=1;exitX=0.25;exitY=0;exitDx=0;exitDy=0;endArrow=none;endFill=0;" edge="1" parent="1" source="fr7ok5PWlqHTc7R7XnK3-34" target="fr7ok5PWlqHTc7R7XnK3-42">
          <mxGeometry relative="1" as="geometry" />
        </mxCell>
        <mxCell id="fr7ok5PWlqHTc7R7XnK3-45" style="edgeStyle=orthogonalEdgeStyle;rounded=0;orthogonalLoop=1;jettySize=auto;html=1;exitX=0.75;exitY=0;exitDx=0;exitDy=0;endArrow=none;endFill=0;" edge="1" parent="1" source="fr7ok5PWlqHTc7R7XnK3-34" target="fr7ok5PWlqHTc7R7XnK3-44">
          <mxGeometry relative="1" as="geometry" />
        </mxCell>
        <mxCell id="fr7ok5PWlqHTc7R7XnK3-47" style="edgeStyle=orthogonalEdgeStyle;rounded=0;orthogonalLoop=1;jettySize=auto;html=1;exitX=0.5;exitY=1;exitDx=0;exitDy=0;endArrow=none;endFill=0;" edge="1" parent="1" source="fr7ok5PWlqHTc7R7XnK3-34" target="fr7ok5PWlqHTc7R7XnK3-46">
          <mxGeometry relative="1" as="geometry">
            <Array as="points">
              <mxPoint x="740" y="230" />
              <mxPoint x="740" y="230" />
            </Array>
          </mxGeometry>
        </mxCell>
        <mxCell id="fr7ok5PWlqHTc7R7XnK3-84" style="edgeStyle=orthogonalEdgeStyle;rounded=0;orthogonalLoop=1;jettySize=auto;html=1;exitX=1;exitY=0.5;exitDx=0;exitDy=0;entryX=0;entryY=0.5;entryDx=0;entryDy=0;endArrow=none;endFill=0;shape=link;" edge="1" parent="1" source="fr7ok5PWlqHTc7R7XnK3-34" target="fr7ok5PWlqHTc7R7XnK3-82">
          <mxGeometry relative="1" as="geometry" />
        </mxCell>
        <mxCell id="fr7ok5PWlqHTc7R7XnK3-85" value="[0..*]" style="edgeLabel;html=1;align=center;verticalAlign=middle;resizable=0;points=[];" vertex="1" connectable="0" parent="fr7ok5PWlqHTc7R7XnK3-84">
          <mxGeometry x="-0.7" y="-3" relative="1" as="geometry">
            <mxPoint x="4" y="-3" as="offset" />
          </mxGeometry>
        </mxCell>
        <mxCell id="fr7ok5PWlqHTc7R7XnK3-34" value="Picture" style="rounded=1;whiteSpace=wrap;html=1;fillColor=#0050ef;strokeColor=#001DBC;fontColor=#ffffff;" vertex="1" parent="1">
          <mxGeometry x="680" y="150" width="120" height="60" as="geometry" />
        </mxCell>
        <mxCell id="fr7ok5PWlqHTc7R7XnK3-37" style="edgeStyle=orthogonalEdgeStyle;rounded=0;orthogonalLoop=1;jettySize=auto;html=1;exitX=1;exitY=0.5;exitDx=0;exitDy=0;endArrow=none;endFill=0;" edge="1" parent="1" source="fr7ok5PWlqHTc7R7XnK3-35" target="fr7ok5PWlqHTc7R7XnK3-34">
          <mxGeometry relative="1" as="geometry" />
        </mxCell>
        <mxCell id="fr7ok5PWlqHTc7R7XnK3-39" value="[0..1]" style="edgeLabel;html=1;align=center;verticalAlign=middle;resizable=0;points=[];" vertex="1" connectable="0" parent="fr7ok5PWlqHTc7R7XnK3-37">
          <mxGeometry x="0.5312" relative="1" as="geometry">
            <mxPoint as="offset" />
          </mxGeometry>
        </mxCell>
        <mxCell id="fr7ok5PWlqHTc7R7XnK3-35" value="contains" style="rhombus;whiteSpace=wrap;html=1;fillColor=#008a00;fontColor=#ffffff;strokeColor=#005700;" vertex="1" parent="1">
          <mxGeometry x="450" y="140" width="90" height="80" as="geometry" />
        </mxCell>
        <mxCell id="fr7ok5PWlqHTc7R7XnK3-57" style="edgeStyle=orthogonalEdgeStyle;rounded=0;orthogonalLoop=1;jettySize=auto;html=1;exitX=1;exitY=0.5;exitDx=0;exitDy=0;endArrow=none;endFill=0;" edge="1" parent="1" source="fr7ok5PWlqHTc7R7XnK3-40" target="fr7ok5PWlqHTc7R7XnK3-55">
          <mxGeometry relative="1" as="geometry" />
        </mxCell>
        <mxCell id="fr7ok5PWlqHTc7R7XnK3-64" style="edgeStyle=orthogonalEdgeStyle;rounded=0;orthogonalLoop=1;jettySize=auto;html=1;exitX=0.5;exitY=1;exitDx=0;exitDy=0;endArrow=none;endFill=0;" edge="1" parent="1" source="fr7ok5PWlqHTc7R7XnK3-40" target="fr7ok5PWlqHTc7R7XnK3-63">
          <mxGeometry relative="1" as="geometry" />
        </mxCell>
        <mxCell id="fr7ok5PWlqHTc7R7XnK3-67" value="[0..*]" style="edgeLabel;html=1;align=center;verticalAlign=middle;resizable=0;points=[];" vertex="1" connectable="0" parent="fr7ok5PWlqHTc7R7XnK3-64">
          <mxGeometry x="0.2629" y="-1" relative="1" as="geometry">
            <mxPoint as="offset" />
          </mxGeometry>
        </mxCell>
        <mxCell id="fr7ok5PWlqHTc7R7XnK3-40" value="Course" style="rounded=1;whiteSpace=wrap;html=1;fillColor=#e51400;strokeColor=#B20000;fontColor=#ffffff;" vertex="1" parent="1">
          <mxGeometry x="280" y="760" width="120" height="60" as="geometry" />
        </mxCell>
        <mxCell id="fr7ok5PWlqHTc7R7XnK3-42" value="&lt;u&gt;picture_id&lt;/u&gt;" style="ellipse;whiteSpace=wrap;html=1;fillColor=#003294;strokeColor=#001DBC;fontColor=#ffffff;" vertex="1" parent="1">
          <mxGeometry x="590" y="50" width="110" height="60" as="geometry" />
        </mxCell>
        <mxCell id="fr7ok5PWlqHTc7R7XnK3-44" value="name" style="ellipse;whiteSpace=wrap;html=1;fillColor=#003294;strokeColor=#2D7600;fontColor=#ffffff;" vertex="1" parent="1">
          <mxGeometry x="780" y="50" width="110" height="60" as="geometry" />
        </mxCell>
        <mxCell id="fr7ok5PWlqHTc7R7XnK3-46" value="picture-data" style="ellipse;whiteSpace=wrap;html=1;fillColor=#003294;strokeColor=#2D7600;fontColor=#ffffff;" vertex="1" parent="1">
          <mxGeometry x="685" y="230" width="110" height="60" as="geometry" />
        </mxCell>
        <mxCell id="fr7ok5PWlqHTc7R7XnK3-50" style="edgeStyle=orthogonalEdgeStyle;rounded=0;orthogonalLoop=1;jettySize=auto;html=1;exitX=0.5;exitY=1;exitDx=0;exitDy=0;endArrow=none;endFill=0;" edge="1" parent="1" source="fr7ok5PWlqHTc7R7XnK3-48" target="fr7ok5PWlqHTc7R7XnK3-40">
          <mxGeometry relative="1" as="geometry" />
        </mxCell>
        <mxCell id="fr7ok5PWlqHTc7R7XnK3-52" value="1" style="edgeLabel;html=1;align=center;verticalAlign=middle;resizable=0;points=[];" vertex="1" connectable="0" parent="fr7ok5PWlqHTc7R7XnK3-50">
          <mxGeometry x="0.4721" y="1" relative="1" as="geometry">
            <mxPoint as="offset" />
          </mxGeometry>
        </mxCell>
        <mxCell id="fr7ok5PWlqHTc7R7XnK3-48" value="studies in" style="rhombus;whiteSpace=wrap;html=1;fillColor=#008a00;fontColor=#ffffff;strokeColor=#005700;" vertex="1" parent="1">
          <mxGeometry x="295" y="590" width="90" height="80" as="geometry" />
        </mxCell>
        <mxCell id="fr7ok5PWlqHTc7R7XnK3-54" value="" style="edgeStyle=orthogonalEdgeStyle;rounded=0;orthogonalLoop=1;jettySize=auto;html=1;endArrow=none;endFill=0;" edge="1" parent="1" source="fr7ok5PWlqHTc7R7XnK3-53" target="fr7ok5PWlqHTc7R7XnK3-40">
          <mxGeometry relative="1" as="geometry" />
        </mxCell>
        <mxCell id="fr7ok5PWlqHTc7R7XnK3-53" value="&lt;u&gt;course id&lt;/u&gt;" style="ellipse;whiteSpace=wrap;html=1;fillColor=#660900;fontColor=#ffffff;strokeColor=#B20000;" vertex="1" parent="1">
          <mxGeometry x="110" y="760" width="110" height="60" as="geometry" />
        </mxCell>
        <mxCell id="fr7ok5PWlqHTc7R7XnK3-55" value="name" style="ellipse;whiteSpace=wrap;html=1;fillColor=#660900;fontColor=#ffffff;strokeColor=#B20000;" vertex="1" parent="1">
          <mxGeometry x="470" y="760" width="110" height="60" as="geometry" />
        </mxCell>
        <mxCell id="fr7ok5PWlqHTc7R7XnK3-58" style="edgeStyle=orthogonalEdgeStyle;rounded=0;orthogonalLoop=1;jettySize=auto;html=1;exitX=1;exitY=0.5;exitDx=0;exitDy=0;endArrow=none;endFill=0;" edge="1" parent="1" source="fr7ok5PWlqHTc7R7XnK3-59" target="fr7ok5PWlqHTc7R7XnK3-62">
          <mxGeometry relative="1" as="geometry" />
        </mxCell>
        <mxCell id="fr7ok5PWlqHTc7R7XnK3-65" style="edgeStyle=orthogonalEdgeStyle;rounded=0;orthogonalLoop=1;jettySize=auto;html=1;entryX=0.5;entryY=1;entryDx=0;entryDy=0;endArrow=none;endFill=0;" edge="1" parent="1" source="fr7ok5PWlqHTc7R7XnK3-59" target="fr7ok5PWlqHTc7R7XnK3-63">
          <mxGeometry relative="1" as="geometry" />
        </mxCell>
        <mxCell id="fr7ok5PWlqHTc7R7XnK3-66" value="1" style="edgeLabel;html=1;align=center;verticalAlign=middle;resizable=0;points=[];" vertex="1" connectable="0" parent="fr7ok5PWlqHTc7R7XnK3-65">
          <mxGeometry x="-0.5071" y="-3" relative="1" as="geometry">
            <mxPoint as="offset" />
          </mxGeometry>
        </mxCell>
        <mxCell id="fr7ok5PWlqHTc7R7XnK3-59" value="Faculty" style="rounded=1;whiteSpace=wrap;html=1;fillColor=#e51400;strokeColor=#B20000;fontColor=#ffffff;" vertex="1" parent="1">
          <mxGeometry x="280" y="970" width="120" height="60" as="geometry" />
        </mxCell>
        <mxCell id="fr7ok5PWlqHTc7R7XnK3-60" value="" style="edgeStyle=orthogonalEdgeStyle;rounded=0;orthogonalLoop=1;jettySize=auto;html=1;endArrow=none;endFill=0;" edge="1" parent="1" source="fr7ok5PWlqHTc7R7XnK3-61" target="fr7ok5PWlqHTc7R7XnK3-59">
          <mxGeometry relative="1" as="geometry" />
        </mxCell>
        <mxCell id="fr7ok5PWlqHTc7R7XnK3-61" value="&lt;u&gt;faculty id&lt;/u&gt;" style="ellipse;whiteSpace=wrap;html=1;fillColor=#660900;fontColor=#ffffff;strokeColor=#B20000;" vertex="1" parent="1">
          <mxGeometry x="110" y="970" width="110" height="60" as="geometry" />
        </mxCell>
        <mxCell id="fr7ok5PWlqHTc7R7XnK3-62" value="name" style="ellipse;whiteSpace=wrap;html=1;fillColor=#660900;fontColor=#ffffff;strokeColor=#B20000;" vertex="1" parent="1">
          <mxGeometry x="470" y="970" width="110" height="60" as="geometry" />
        </mxCell>
        <mxCell id="fr7ok5PWlqHTc7R7XnK3-63" value="is located in" style="rhombus;whiteSpace=wrap;html=1;fillColor=#008a00;fontColor=#ffffff;strokeColor=#005700;" vertex="1" parent="1">
          <mxGeometry x="295" y="850" width="90" height="80" as="geometry" />
        </mxCell>
        <mxCell id="fr7ok5PWlqHTc7R7XnK3-78" style="edgeStyle=orthogonalEdgeStyle;rounded=0;orthogonalLoop=1;jettySize=auto;html=1;exitX=1;exitY=0.5;exitDx=0;exitDy=0;endArrow=none;endFill=0;" edge="1" parent="1" source="fr7ok5PWlqHTc7R7XnK3-68" target="fr7ok5PWlqHTc7R7XnK3-71">
          <mxGeometry relative="1" as="geometry" />
        </mxCell>
        <mxCell id="fr7ok5PWlqHTc7R7XnK3-79" style="edgeStyle=orthogonalEdgeStyle;rounded=0;orthogonalLoop=1;jettySize=auto;html=1;exitX=0.75;exitY=1;exitDx=0;exitDy=0;endArrow=none;endFill=0;" edge="1" parent="1" source="fr7ok5PWlqHTc7R7XnK3-68" target="fr7ok5PWlqHTc7R7XnK3-73">
          <mxGeometry relative="1" as="geometry">
            <Array as="points">
              <mxPoint x="1000" y="480" />
              <mxPoint x="1000" y="510" />
              <mxPoint x="1075" y="510" />
            </Array>
          </mxGeometry>
        </mxCell>
        <mxCell id="fr7ok5PWlqHTc7R7XnK3-99" style="edgeStyle=orthogonalEdgeStyle;rounded=0;orthogonalLoop=1;jettySize=auto;html=1;exitX=0.5;exitY=1;exitDx=0;exitDy=0;endArrow=none;endFill=0;" edge="1" parent="1" source="fr7ok5PWlqHTc7R7XnK3-68" target="fr7ok5PWlqHTc7R7XnK3-98">
          <mxGeometry relative="1" as="geometry" />
        </mxCell>
        <mxCell id="fr7ok5PWlqHTc7R7XnK3-102" value="1" style="edgeLabel;html=1;align=center;verticalAlign=middle;resizable=0;points=[];" vertex="1" connectable="0" parent="fr7ok5PWlqHTc7R7XnK3-99">
          <mxGeometry x="-0.4214" y="1" relative="1" as="geometry">
            <mxPoint as="offset" />
          </mxGeometry>
        </mxCell>
        <mxCell id="fr7ok5PWlqHTc7R7XnK3-68" value="Post" style="rounded=1;whiteSpace=wrap;html=1;fillColor=#6a00ff;strokeColor=#3700CC;fontColor=#ffffff;" vertex="1" parent="1">
          <mxGeometry x="890" y="420" width="120" height="60" as="geometry" />
        </mxCell>
        <mxCell id="fr7ok5PWlqHTc7R7XnK3-76" style="edgeStyle=orthogonalEdgeStyle;rounded=0;orthogonalLoop=1;jettySize=auto;html=1;endArrow=none;endFill=0;" edge="1" parent="1" source="fr7ok5PWlqHTc7R7XnK3-69" target="fr7ok5PWlqHTc7R7XnK3-68">
          <mxGeometry relative="1" as="geometry">
            <Array as="points">
              <mxPoint x="1065" y="365" />
              <mxPoint x="980" y="365" />
            </Array>
          </mxGeometry>
        </mxCell>
        <mxCell id="fr7ok5PWlqHTc7R7XnK3-69" value="&lt;u&gt;post id&lt;/u&gt;" style="ellipse;whiteSpace=wrap;html=1;fillColor=#d80073;strokeColor=#A50040;fontColor=#ffffff;" vertex="1" parent="1">
          <mxGeometry x="1010" y="260" width="110" height="60" as="geometry" />
        </mxCell>
        <mxCell id="fr7ok5PWlqHTc7R7XnK3-77" style="edgeStyle=orthogonalEdgeStyle;rounded=0;orthogonalLoop=1;jettySize=auto;html=1;exitX=0;exitY=1;exitDx=0;exitDy=0;endArrow=none;endFill=0;" edge="1" parent="1" source="fr7ok5PWlqHTc7R7XnK3-70" target="fr7ok5PWlqHTc7R7XnK3-68">
          <mxGeometry relative="1" as="geometry">
            <Array as="points">
              <mxPoint x="1000" y="381" />
            </Array>
          </mxGeometry>
        </mxCell>
        <mxCell id="fr7ok5PWlqHTc7R7XnK3-70" value="title" style="ellipse;whiteSpace=wrap;html=1;fillColor=#d80073;strokeColor=#A50040;fontColor=#ffffff;" vertex="1" parent="1">
          <mxGeometry x="1100" y="330" width="110" height="60" as="geometry" />
        </mxCell>
        <mxCell id="fr7ok5PWlqHTc7R7XnK3-71" value="description" style="ellipse;whiteSpace=wrap;html=1;fillColor=#d80073;strokeColor=#A50040;fontColor=#ffffff;" vertex="1" parent="1">
          <mxGeometry x="1090" y="420" width="110" height="60" as="geometry" />
        </mxCell>
        <mxCell id="fr7ok5PWlqHTc7R7XnK3-73" value="date" style="ellipse;whiteSpace=wrap;html=1;fillColor=#d80073;strokeColor=#A50040;fontColor=#ffffff;" vertex="1" parent="1">
          <mxGeometry x="1020" y="540" width="110" height="60" as="geometry" />
        </mxCell>
        <mxCell id="fr7ok5PWlqHTc7R7XnK3-74" value="likes" style="ellipse;whiteSpace=wrap;html=1;fillColor=#d80073;strokeColor=#A50040;fontColor=#ffffff;" vertex="1" parent="1">
          <mxGeometry x="730" y="330" width="110" height="60" as="geometry" />
        </mxCell>
        <mxCell id="fr7ok5PWlqHTc7R7XnK3-80" style="edgeStyle=orthogonalEdgeStyle;rounded=0;orthogonalLoop=1;jettySize=auto;html=1;endArrow=none;endFill=0;" edge="1" parent="1" source="fr7ok5PWlqHTc7R7XnK3-75" target="fr7ok5PWlqHTc7R7XnK3-68">
          <mxGeometry relative="1" as="geometry">
            <Array as="points">
              <mxPoint x="850" y="510" />
              <mxPoint x="900" y="510" />
            </Array>
          </mxGeometry>
        </mxCell>
        <mxCell id="fr7ok5PWlqHTc7R7XnK3-75" value="tags" style="ellipse;shape=doubleEllipse;whiteSpace=wrap;html=1;fillColor=#d80073;fontColor=#ffffff;strokeColor=#FFFFFF;" vertex="1" parent="1">
          <mxGeometry x="795" y="540" width="100" height="60" as="geometry" />
        </mxCell>
        <mxCell id="fr7ok5PWlqHTc7R7XnK3-81" style="edgeStyle=orthogonalEdgeStyle;rounded=0;orthogonalLoop=1;jettySize=auto;html=1;exitX=1;exitY=0.5;exitDx=0;exitDy=0;endArrow=none;endFill=0;" edge="1" parent="1" source="fr7ok5PWlqHTc7R7XnK3-74">
          <mxGeometry relative="1" as="geometry">
            <mxPoint x="900" y="420" as="targetPoint" />
            <Array as="points">
              <mxPoint x="900" y="360" />
            </Array>
          </mxGeometry>
        </mxCell>
        <mxCell id="fr7ok5PWlqHTc7R7XnK3-83" style="edgeStyle=orthogonalEdgeStyle;rounded=0;orthogonalLoop=1;jettySize=auto;html=1;exitX=0.5;exitY=1;exitDx=0;exitDy=0;endArrow=none;endFill=0;" edge="1" parent="1" source="fr7ok5PWlqHTc7R7XnK3-82" target="fr7ok5PWlqHTc7R7XnK3-68">
          <mxGeometry relative="1" as="geometry" />
        </mxCell>
        <mxCell id="fr7ok5PWlqHTc7R7XnK3-86" value="1" style="edgeLabel;html=1;align=center;verticalAlign=middle;resizable=0;points=[];" vertex="1" connectable="0" parent="fr7ok5PWlqHTc7R7XnK3-83">
          <mxGeometry x="0.8075" y="-2" relative="1" as="geometry">
            <mxPoint y="-1" as="offset" />
          </mxGeometry>
        </mxCell>
        <mxCell id="fr7ok5PWlqHTc7R7XnK3-82" value="includes" style="rhombus;whiteSpace=wrap;html=1;fillColor=#008a00;fontColor=#ffffff;strokeColor=#005700;" vertex="1" parent="1">
          <mxGeometry x="905" y="140" width="90" height="80" as="geometry" />
        </mxCell>
        <mxCell id="fr7ok5PWlqHTc7R7XnK3-89" style="edgeStyle=orthogonalEdgeStyle;rounded=0;orthogonalLoop=1;jettySize=auto;html=1;endArrow=none;endFill=0;" edge="1" parent="1">
          <mxGeometry relative="1" as="geometry">
            <mxPoint x="679.5159090909087" y="430.02969696969694" as="sourcePoint" />
            <mxPoint x="889.5500000000002" y="450.02969696969694" as="targetPoint" />
          </mxGeometry>
        </mxCell>
        <mxCell id="fr7ok5PWlqHTc7R7XnK3-91" value="[0..*]" style="edgeLabel;html=1;align=center;verticalAlign=middle;resizable=0;points=[];" vertex="1" connectable="0" parent="fr7ok5PWlqHTc7R7XnK3-89">
          <mxGeometry x="0.6566" y="1" relative="1" as="geometry">
            <mxPoint as="offset" />
          </mxGeometry>
        </mxCell>
        <mxCell id="fr7ok5PWlqHTc7R7XnK3-87" value="creates" style="rhombus;whiteSpace=wrap;html=1;fillColor=#008a00;fontColor=#ffffff;strokeColor=#005700;" vertex="1" parent="1">
          <mxGeometry x="590" y="390" width="90" height="80" as="geometry" />
        </mxCell>
        <mxCell id="fr7ok5PWlqHTc7R7XnK3-92" style="edgeStyle=orthogonalEdgeStyle;rounded=0;orthogonalLoop=1;jettySize=auto;html=1;endArrow=none;endFill=0;entryX=0;entryY=0.5;entryDx=0;entryDy=0;" edge="1" parent="1" target="fr7ok5PWlqHTc7R7XnK3-96" source="fr7ok5PWlqHTc7R7XnK3-2">
          <mxGeometry relative="1" as="geometry">
            <mxPoint x="390" y="440" as="sourcePoint" />
            <Array as="points">
              <mxPoint x="525" y="450" />
              <mxPoint x="525" y="520" />
            </Array>
          </mxGeometry>
        </mxCell>
        <mxCell id="fr7ok5PWlqHTc7R7XnK3-93" value="[0..*]" style="edgeLabel;html=1;align=center;verticalAlign=middle;resizable=0;points=[];" vertex="1" connectable="0" parent="fr7ok5PWlqHTc7R7XnK3-92">
          <mxGeometry x="-0.6648" y="2" relative="1" as="geometry">
            <mxPoint x="-14" as="offset" />
          </mxGeometry>
        </mxCell>
        <mxCell id="fr7ok5PWlqHTc7R7XnK3-94" style="edgeStyle=orthogonalEdgeStyle;rounded=0;orthogonalLoop=1;jettySize=auto;html=1;endArrow=none;endFill=0;entryX=0;entryY=0.5;entryDx=0;entryDy=0;exitX=1;exitY=0.5;exitDx=0;exitDy=0;" edge="1" parent="1" source="fr7ok5PWlqHTc7R7XnK3-96" target="fr7ok5PWlqHTc7R7XnK3-68">
          <mxGeometry relative="1" as="geometry">
            <mxPoint x="674.3959090909087" y="530.0296969696969" as="sourcePoint" />
            <mxPoint x="884.4300000000002" y="550.0296969696969" as="targetPoint" />
          </mxGeometry>
        </mxCell>
        <mxCell id="fr7ok5PWlqHTc7R7XnK3-95" value="[0..*]" style="edgeLabel;html=1;align=center;verticalAlign=middle;resizable=0;points=[];" vertex="1" connectable="0" parent="fr7ok5PWlqHTc7R7XnK3-94">
          <mxGeometry x="0.6566" y="1" relative="1" as="geometry">
            <mxPoint x="29" as="offset" />
          </mxGeometry>
        </mxCell>
        <mxCell id="fr7ok5PWlqHTc7R7XnK3-96" value="saves" style="rhombus;whiteSpace=wrap;html=1;fillColor=#008a00;fontColor=#ffffff;strokeColor=#005700;" vertex="1" parent="1">
          <mxGeometry x="590" y="480" width="90" height="80" as="geometry" />
        </mxCell>
        <mxCell id="fr7ok5PWlqHTc7R7XnK3-107" style="edgeStyle=orthogonalEdgeStyle;rounded=0;orthogonalLoop=1;jettySize=auto;html=1;exitX=1;exitY=0.5;exitDx=0;exitDy=0;endArrow=none;endFill=0;" edge="1" parent="1" source="fr7ok5PWlqHTc7R7XnK3-97" target="fr7ok5PWlqHTc7R7XnK3-103">
          <mxGeometry relative="1" as="geometry" />
        </mxCell>
        <mxCell id="fr7ok5PWlqHTc7R7XnK3-97" value="Comment" style="rounded=1;whiteSpace=wrap;html=1;fillColor=#6a00ff;strokeColor=#3700CC;fontColor=#ffffff;" vertex="1" parent="1">
          <mxGeometry x="890" y="730" width="120" height="60" as="geometry" />
        </mxCell>
        <mxCell id="fr7ok5PWlqHTc7R7XnK3-100" style="edgeStyle=orthogonalEdgeStyle;rounded=0;orthogonalLoop=1;jettySize=auto;html=1;exitX=0.5;exitY=1;exitDx=0;exitDy=0;endArrow=none;endFill=0;shape=link;" edge="1" parent="1" source="fr7ok5PWlqHTc7R7XnK3-98" target="fr7ok5PWlqHTc7R7XnK3-97">
          <mxGeometry relative="1" as="geometry" />
        </mxCell>
        <mxCell id="fr7ok5PWlqHTc7R7XnK3-101" value="[0..*]" style="edgeLabel;html=1;align=center;verticalAlign=middle;resizable=0;points=[];" vertex="1" connectable="0" parent="fr7ok5PWlqHTc7R7XnK3-100">
          <mxGeometry x="0.5302" y="1" relative="1" as="geometry">
            <mxPoint as="offset" />
          </mxGeometry>
        </mxCell>
        <mxCell id="fr7ok5PWlqHTc7R7XnK3-98" value="includes" style="rhombus;whiteSpace=wrap;html=1;fillColor=#008a00;fontColor=#ffffff;strokeColor=#005700;" vertex="1" parent="1">
          <mxGeometry x="905" y="560" width="90" height="80" as="geometry" />
        </mxCell>
        <mxCell id="fr7ok5PWlqHTc7R7XnK3-103" value="comment_id" style="ellipse;whiteSpace=wrap;html=1;fillColor=#d80073;strokeColor=#A50040;fontColor=#ffffff;" vertex="1" parent="1">
          <mxGeometry x="1060" y="730" width="110" height="60" as="geometry" />
        </mxCell>
        <mxCell id="fr7ok5PWlqHTc7R7XnK3-106" style="edgeStyle=orthogonalEdgeStyle;rounded=0;orthogonalLoop=1;jettySize=auto;html=1;exitX=0.5;exitY=0;exitDx=0;exitDy=0;entryX=0.5;entryY=1;entryDx=0;entryDy=0;endArrow=none;endFill=0;" edge="1" parent="1" source="fr7ok5PWlqHTc7R7XnK3-104" target="fr7ok5PWlqHTc7R7XnK3-97">
          <mxGeometry relative="1" as="geometry" />
        </mxCell>
        <mxCell id="fr7ok5PWlqHTc7R7XnK3-104" value="date" style="ellipse;whiteSpace=wrap;html=1;fillColor=#d80073;strokeColor=#A50040;fontColor=#ffffff;" vertex="1" parent="1">
          <mxGeometry x="895" y="870" width="110" height="60" as="geometry" />
        </mxCell>
        <mxCell id="fr7ok5PWlqHTc7R7XnK3-105" value="description" style="ellipse;whiteSpace=wrap;html=1;fillColor=#d80073;strokeColor=#A50040;fontColor=#ffffff;" vertex="1" parent="1">
          <mxGeometry x="1060" y="850" width="110" height="60" as="geometry" />
        </mxCell>
        <mxCell id="fr7ok5PWlqHTc7R7XnK3-108" style="edgeStyle=orthogonalEdgeStyle;rounded=0;orthogonalLoop=1;jettySize=auto;html=1;exitX=0;exitY=0.5;exitDx=0;exitDy=0;entryX=0.989;entryY=0.904;entryDx=0;entryDy=0;entryPerimeter=0;endArrow=none;endFill=0;" edge="1" parent="1" source="fr7ok5PWlqHTc7R7XnK3-105" target="fr7ok5PWlqHTc7R7XnK3-97">
          <mxGeometry relative="1" as="geometry">
            <Array as="points">
              <mxPoint x="1060" y="879" />
              <mxPoint x="1040" y="879" />
              <mxPoint x="1040" y="784" />
            </Array>
          </mxGeometry>
        </mxCell>
        <mxCell id="fr7ok5PWlqHTc7R7XnK3-111" style="edgeStyle=orthogonalEdgeStyle;rounded=0;orthogonalLoop=1;jettySize=auto;html=1;exitX=1;exitY=0.5;exitDx=0;exitDy=0;endArrow=none;endFill=0;" edge="1" parent="1" source="fr7ok5PWlqHTc7R7XnK3-109" target="fr7ok5PWlqHTc7R7XnK3-97">
          <mxGeometry relative="1" as="geometry" />
        </mxCell>
        <mxCell id="fr7ok5PWlqHTc7R7XnK3-113" value="[0..*]" style="edgeLabel;html=1;align=center;verticalAlign=middle;resizable=0;points=[];" vertex="1" connectable="0" parent="fr7ok5PWlqHTc7R7XnK3-111">
          <mxGeometry x="0.4396" y="3" relative="1" as="geometry">
            <mxPoint as="offset" />
          </mxGeometry>
        </mxCell>
        <mxCell id="fr7ok5PWlqHTc7R7XnK3-109" value="creates" style="rhombus;whiteSpace=wrap;html=1;fillColor=#008a00;fontColor=#ffffff;strokeColor=#005700;" vertex="1" parent="1">
          <mxGeometry x="670" y="720" width="90" height="80" as="geometry" />
        </mxCell>
      </root>
    </mxGraphModel>
  </diagram>
</mxfile>
